<?xml version="1.0" encoding="UTF-8"?>
<svg xmlns="http://www.w3.org/2000/svg" xmlns:xlink="http://www.w3.org/1999/xlink" width="117px" height="35px" viewBox="0 0 117 35" version="1.1">
<g id="surface1">
<path style=" stroke:none;fill-rule:nonzero;fill:rgb(0%,0%,0%);fill-opacity:1;" d="M 47.492188 11.074219 C 44.222656 11.40625 39.863281 12.351562 27.816406 15.339844 C 16.628906 18.121094 11.804688 19.132812 9.484375 19.203125 C 8.519531 19.238281 8.230469 19.1875 7.902344 18.914062 L 7.675781 18.726562 L 7.75 18.910156 C 7.976562 19.46875 9.394531 19.503906 12.589844 19.015625 C 15.816406 18.527344 18.980469 17.851562 28.570312 15.601562 C 39.1875 13.109375 41.433594 12.617188 44.898438 11.984375 C 46.289062 11.726562 47.855469 11.542969 48.457031 11.5625 C 48.910156 11.578125 48.925781 11.582031 48.910156 11.816406 C 48.867188 12.425781 45.546875 14.535156 39.050781 18.109375 C 36.515625 19.5 35.160156 20.230469 30.789062 22.542969 C 29.085938 23.445312 28.707031 23.71875 29.070312 23.789062 C 29.324219 23.835938 29.640625 23.703125 36.335938 20.785156 C 47.265625 16.019531 53.644531 13.632812 58.726562 12.429688 C 59.75 12.1875 61.5 11.902344 62.238281 11.867188 C 62.871094 11.832031 62.855469 11.875 62.210938 12.375 C 61.304688 13.058594 59.917969 13.8125 53.496094 17.117188 C 52.136719 17.816406 50.28125 18.8125 49.410156 19.316406 C 45.261719 21.703125 44.296875 23.027344 46.347656 23.503906 C 46.695312 23.589844 46.980469 23.601562 48.21875 23.601562 C 50.011719 23.601562 51.023438 23.507812 53.839844 23.078125 C 59.101562 22.273438 65.328125 20.921875 75.3125 18.417969 C 76.726562 18.066406 78.160156 17.714844 78.507812 17.636719 C 78.871094 17.558594 79.15625 17.480469 79.15625 17.460938 C 79.15625 17.441406 77.753906 17.742188 76.035156 18.121094 C 63.324219 20.9375 52.105469 22.902344 48.171875 22.996094 C 47.585938 23.015625 47.117188 23 46.890625 22.964844 C 46.574219 22.910156 46.558594 22.882812 46.632812 22.566406 C 46.738281 22.09375 47.191406 21.710938 48.957031 20.597656 C 50.417969 19.671875 52.394531 18.597656 57.097656 16.167969 C 61.984375 13.644531 63.914062 12.457031 64.304688 11.75 C 64.5 11.386719 63.746094 11.199219 62.253906 11.230469 C 58.394531 11.320312 51.429688 13.589844 41.671875 17.945312 C 39.15625 19.070312 37.875 19.660156 33.847656 21.542969 C 30.472656 23.128906 29.71875 23.457031 29.597656 23.417969 C 29.476562 23.386719 30.320312 22.960938 33.820312 21.28125 C 40.980469 17.851562 44.3125 16.136719 47.054688 14.464844 C 49.832031 12.773438 50.839844 11.71875 50.132812 11.246094 C 49.710938 10.976562 48.941406 10.929688 47.492188 11.074219 Z M 47.492188 11.074219 "/>
<path style=" stroke:none;fill-rule:nonzero;fill:rgb(0%,0%,0%);fill-opacity:1;" d="M 81.265625 13.210938 C 80.574219 13.367188 79.96875 13.507812 79.925781 13.527344 C 79.804688 13.566406 83.121094 13.019531 83.300781 12.96875 C 83.378906 12.945312 83.242188 12.925781 82.984375 12.925781 C 82.652344 12.925781 82.140625 13.011719 81.265625 13.210938 Z M 81.265625 13.210938 "/>
<path style=" stroke:none;fill-rule:nonzero;fill:rgb(0%,0%,0%);fill-opacity:1;" d="M 79.953125 14.433594 C 79.636719 14.554688 79.082031 14.800781 78.703125 14.972656 L 78.023438 15.285156 L 75.234375 15.714844 C 71.179688 16.339844 68.707031 16.621094 67.320312 16.621094 C 65.871094 16.621094 66.054688 16.289062 67.9375 15.496094 C 68.8125 15.128906 68.902344 15.058594 68.464844 15.058594 C 68.300781 15.058594 67.984375 15.148438 67.683594 15.285156 C 67.199219 15.507812 65.179688 16.035156 63.714844 16.324219 C 62.722656 16.523438 60.925781 16.757812 60.113281 16.789062 C 59.570312 16.8125 59.433594 16.804688 59.34375 16.738281 C 59.132812 16.558594 60.898438 15.875 62.480469 15.535156 C 63.503906 15.3125 64.96875 15.109375 65.796875 15.074219 C 66.492188 15.042969 66.566406 15.050781 66.882812 15.175781 C 67.167969 15.289062 67.261719 15.304688 67.457031 15.25 C 67.773438 15.171875 67.757812 15.039062 67.441406 14.933594 C 67.019531 14.800781 65.527344 14.867188 64.230469 15.074219 C 61.457031 15.515625 58.394531 16.566406 59.101562 16.832031 C 59.675781 17.050781 62.40625 16.71875 65.132812 16.101562 C 65.917969 15.921875 66.582031 15.785156 66.613281 15.789062 C 66.640625 15.800781 66.519531 15.890625 66.355469 15.996094 C 66.1875 16.097656 66.007812 16.269531 65.949219 16.375 C 65.859375 16.542969 65.902344 16.570312 66.25 16.644531 C 67.183594 16.835938 70.546875 16.535156 74.917969 15.863281 C 76.410156 15.628906 77.648438 15.449219 77.648438 15.460938 C 77.648438 15.46875 77.40625 15.628906 77.121094 15.820312 C 76.472656 16.246094 76.398438 16.582031 76.925781 16.671875 C 77.84375 16.828125 81.265625 16.5 85.457031 15.863281 C 86.996094 15.625 88.261719 15.4375 88.292969 15.4375 C 88.324219 15.4375 88.203125 15.535156 88.035156 15.65625 C 87.855469 15.785156 87.691406 16.011719 87.644531 16.167969 C 87.539062 16.523438 87.75 16.59375 88.867188 16.589844 C 89.859375 16.589844 90.917969 16.4375 92.980469 16 C 94.714844 15.632812 95.921875 15.4375 96.449219 15.4375 C 96.855469 15.4375 97.160156 15.574219 97.382812 15.875 C 97.625 16.199219 97.925781 16.316406 98.695312 16.410156 C 99.585938 16.515625 101.167969 16.480469 102.75 16.316406 C 104.078125 16.175781 109.3125 15.394531 109.3125 15.332031 C 109.3125 15.3125 109.28125 15.292969 109.25 15.292969 C 109.21875 15.292969 108.042969 15.472656 106.640625 15.691406 C 103.671875 16.164062 102.105469 16.339844 100.625 16.375 C 99.285156 16.402344 98.695312 16.316406 98.289062 16.035156 C 98.136719 15.929688 98.003906 15.804688 98.003906 15.765625 C 98.003906 15.625 97.6875 15.339844 97.460938 15.269531 C 97.324219 15.230469 97.066406 15.199219 96.871094 15.199219 C 96.375 15.199219 94.851562 15.460938 93.101562 15.847656 C 90.492188 16.425781 89.105469 16.613281 88.578125 16.476562 C 88.082031 16.347656 88.308594 16.054688 89.46875 15.285156 C 89.847656 15.03125 90.164062 14.8125 90.164062 14.796875 C 90.164062 14.78125 89.996094 14.773438 89.800781 14.773438 C 89.5 14.773438 89.332031 14.824219 89 15.019531 C 88.59375 15.261719 88.503906 15.28125 86.46875 15.609375 C 82.683594 16.222656 79.261719 16.621094 77.785156 16.621094 C 76.214844 16.621094 76.789062 16.117188 79.714844 14.925781 C 80.890625 14.445312 81.117188 14.328125 80.964844 14.277344 C 80.679688 14.167969 80.574219 14.1875 79.953125 14.433594 Z M 79.953125 14.433594 "/>
<path style=" stroke:none;fill-rule:nonzero;fill:rgb(0%,0%,0%);fill-opacity:1;" d="M 43.996094 24.578125 C 43.753906 24.621094 43.722656 24.710938 43.722656 25.34375 C 43.722656 26.136719 43.769531 26.183594 44.554688 26.183594 C 45.203125 26.183594 45.382812 26.109375 45.382812 25.839844 C 45.382812 25.644531 45.335938 25.609375 45.125 25.625 C 44.945312 25.632812 44.824219 25.699219 44.78125 25.824219 C 44.734375 25.929688 44.613281 26.019531 44.523438 26.03125 C 44.371094 26.046875 44.328125 25.894531 44.328125 25.382812 C 44.328125 24.820312 44.359375 24.714844 44.554688 24.714844 C 44.71875 24.714844 44.78125 24.773438 44.78125 24.929688 C 44.78125 25.046875 44.839844 25.140625 44.898438 25.140625 C 45.382812 25.140625 45.5625 24.734375 45.140625 24.601562 C 44.871094 24.515625 44.371094 24.507812 43.996094 24.578125 Z M 43.996094 24.578125 "/>
<path style=" stroke:none;fill-rule:nonzero;fill:rgb(0%,0%,0%);fill-opacity:1;" d="M 48.335938 24.601562 C 48.140625 24.664062 48.097656 24.800781 48.097656 25.375 C 48.097656 26.136719 48.140625 26.183594 48.925781 26.183594 C 49.574219 26.183594 49.753906 26.109375 49.753906 25.839844 C 49.753906 25.644531 49.710938 25.609375 49.5 25.625 C 49.316406 25.632812 49.199219 25.695312 49.152344 25.820312 C 49.105469 25.917969 49.015625 26 48.925781 25.996094 C 48.835938 25.996094 48.761719 25.738281 48.730469 25.355469 C 48.699219 24.804688 48.730469 24.714844 48.925781 24.714844 C 49.089844 24.714844 49.152344 24.769531 49.152344 24.929688 C 49.152344 25.046875 49.210938 25.140625 49.273438 25.140625 C 49.753906 25.140625 49.9375 24.734375 49.515625 24.601562 C 49.394531 24.558594 49.121094 24.527344 48.925781 24.527344 C 48.730469 24.527344 48.457031 24.558594 48.335938 24.601562 Z M 48.335938 24.601562 "/>
<path style=" stroke:none;fill-rule:nonzero;fill:rgb(0%,0%,0%);fill-opacity:1;" d="M 53.417969 24.5625 L 52.769531 24.578125 L 52.769531 26.183594 L 53.433594 26.183594 C 53.902344 26.183594 54.128906 26.160156 54.1875 26.109375 C 54.324219 25.996094 54.324219 25.996094 53.75 25.996094 L 53.222656 25.996094 L 53.222656 25.71875 C 53.222656 25.488281 53.269531 25.441406 53.554688 25.402344 C 54.039062 25.332031 54.066406 25.238281 53.601562 25.238281 C 53.222656 25.238281 53.207031 25.226562 53.253906 24.984375 C 53.296875 24.769531 53.34375 24.738281 53.644531 24.726562 C 53.839844 24.714844 54.039062 24.679688 54.082031 24.640625 C 54.1875 24.550781 54.171875 24.546875 53.417969 24.5625 Z M 53.417969 24.5625 "/>
<path style=" stroke:none;fill-rule:nonzero;fill:rgb(0%,0%,0%);fill-opacity:1;" d="M 57.097656 24.613281 C 56.707031 24.75 56.796875 24.972656 57.382812 25.335938 C 57.761719 25.578125 57.898438 25.71875 57.867188 25.84375 C 57.804688 26.070312 57.535156 26.070312 57.476562 25.839844 C 57.445312 25.742188 57.371094 25.664062 57.308594 25.664062 C 56.886719 25.664062 56.660156 26.011719 57.023438 26.125 C 57.261719 26.203125 58.078125 26.203125 58.320312 26.125 C 58.664062 26.019531 58.53125 25.675781 57.972656 25.332031 C 57.414062 24.980469 57.277344 24.714844 57.671875 24.714844 C 57.804688 24.714844 57.898438 24.761719 57.898438 24.839844 C 57.898438 25.003906 58.410156 24.976562 58.46875 24.804688 C 58.558594 24.5625 57.609375 24.433594 57.097656 24.613281 Z M 57.097656 24.613281 "/>
<path style=" stroke:none;fill-rule:nonzero;fill:rgb(0%,0%,0%);fill-opacity:1;" d="M 61.457031 24.628906 C 61.09375 24.792969 61.167969 24.972656 61.742188 25.332031 C 62.089844 25.550781 62.269531 25.730469 62.269531 25.855469 C 62.269531 26.101562 61.90625 26.089844 61.847656 25.839844 C 61.800781 25.683594 61.773438 25.667969 61.5 25.710938 C 61.183594 25.765625 61.125 25.945312 61.363281 26.09375 C 61.546875 26.199219 62.390625 26.222656 62.691406 26.125 C 63.039062 26.019531 62.902344 25.675781 62.34375 25.332031 C 61.785156 24.980469 61.652344 24.714844 62.042969 24.714844 C 62.179688 24.714844 62.269531 24.761719 62.269531 24.839844 C 62.269531 25.015625 62.78125 24.972656 62.84375 24.785156 C 62.933594 24.539062 61.90625 24.425781 61.457031 24.628906 Z M 61.457031 24.628906 "/>
<path style=" stroke:none;fill-rule:nonzero;fill:rgb(0%,0%,0%);fill-opacity:1;" d="M 65.828125 24.601562 C 65.632812 24.664062 65.585938 24.800781 65.585938 25.375 C 65.585938 25.851562 65.648438 26.089844 65.765625 26.125 C 65.992188 26.199219 67.050781 26.203125 67.183594 26.132812 C 67.378906 26.03125 67.289062 24.671875 67.09375 24.597656 C 66.851562 24.503906 66.113281 24.507812 65.828125 24.601562 Z M 66.71875 25.378906 C 66.71875 25.914062 66.6875 26.019531 66.492188 26.019531 C 66.308594 26.019531 66.265625 25.910156 66.21875 25.363281 C 66.1875 24.757812 66.203125 24.710938 66.445312 24.726562 C 66.6875 24.738281 66.71875 24.804688 66.71875 25.378906 Z M 66.71875 25.378906 "/>
<path style=" stroke:none;fill-rule:nonzero;fill:rgb(0%,0%,0%);fill-opacity:1;" d="M 82.714844 24.601562 C 82.292969 24.730469 82.414062 25.027344 83.015625 25.363281 C 83.40625 25.585938 83.527344 25.710938 83.5 25.839844 C 83.4375 26.089844 83.074219 26.101562 83.074219 25.855469 C 83.074219 25.648438 83.074219 25.648438 82.714844 25.691406 C 82.425781 25.722656 82.382812 26.042969 82.652344 26.125 C 82.894531 26.203125 83.710938 26.203125 83.949219 26.125 C 84.296875 26.019531 84.160156 25.675781 83.605469 25.332031 C 83.046875 24.980469 82.910156 24.714844 83.300781 24.714844 C 83.4375 24.714844 83.527344 24.761719 83.527344 24.839844 C 83.527344 25.003906 84.039062 24.976562 84.101562 24.804688 C 84.191406 24.570312 83.242188 24.433594 82.714844 24.601562 Z M 82.714844 24.601562 "/>
<path style=" stroke:none;fill-rule:nonzero;fill:rgb(0%,0%,0%);fill-opacity:1;" d="M 39.667969 25.246094 C 39.488281 25.621094 39.304688 25.980469 39.261719 26.050781 C 39.1875 26.160156 39.230469 26.183594 39.488281 26.183594 C 39.835938 26.183594 39.878906 26.152344 40.105469 25.597656 C 40.195312 25.386719 40.285156 25.214844 40.316406 25.203125 C 40.347656 25.195312 40.40625 25.332031 40.46875 25.507812 C 40.664062 26.101562 40.722656 26.183594 41.023438 26.183594 C 41.371094 26.183594 41.371094 26.179688 41.011719 25.417969 C 40.589844 24.570312 40.601562 24.574219 40.273438 24.574219 C 40.03125 24.574219 39.953125 24.660156 39.667969 25.246094 Z M 39.667969 25.246094 "/>
<path style=" stroke:none;fill-rule:nonzero;fill:rgb(0%,0%,0%);fill-opacity:1;" d="M 69.988281 25.363281 C 70.035156 26.078125 70.0625 26.160156 70.304688 26.175781 C 70.53125 26.1875 70.5625 26.144531 70.5625 25.832031 C 70.5625 25.554688 70.605469 25.472656 70.773438 25.472656 C 70.984375 25.472656 71.210938 25.605469 71.148438 25.691406 C 71.136719 25.714844 71.136719 25.832031 71.148438 25.957031 C 71.164062 26.125 71.226562 26.183594 71.390625 26.183594 C 71.585938 26.183594 71.617188 26.074219 71.585938 25.386719 L 71.542969 24.597656 L 70.742188 24.582031 L 69.957031 24.570312 Z M 71.105469 24.976562 C 71.136719 25.203125 70.984375 25.332031 70.699219 25.332031 C 70.621094 25.332031 70.5625 25.1875 70.5625 25.019531 C 70.5625 24.75 70.59375 24.710938 70.832031 24.726562 C 71.027344 24.738281 71.089844 24.792969 71.105469 24.976562 Z M 71.105469 24.976562 "/>
<path style=" stroke:none;fill-rule:nonzero;fill:rgb(0%,0%,0%);fill-opacity:1;" d="M 74.632812 25.378906 C 74.632812 26.0625 74.664062 26.183594 74.859375 26.183594 C 75.054688 26.183594 75.085938 26.0625 75.085938 25.378906 C 75.085938 24.695312 75.054688 24.574219 74.859375 24.574219 C 74.664062 24.574219 74.632812 24.695312 74.632812 25.378906 Z M 74.632812 25.378906 "/>
<path style=" stroke:none;fill-rule:nonzero;fill:rgb(0%,0%,0%);fill-opacity:1;" d="M 78.28125 25.363281 L 78.328125 26.160156 L 78.988281 26.175781 C 79.414062 26.183594 79.699219 26.167969 79.773438 26.125 C 80 26.019531 79.925781 25.996094 79.382812 25.996094 L 78.855469 25.996094 L 78.855469 25.71875 C 78.855469 25.488281 78.898438 25.441406 79.1875 25.402344 C 79.667969 25.332031 79.699219 25.238281 79.230469 25.238281 C 78.855469 25.238281 78.839844 25.226562 78.882812 24.992188 C 78.929688 24.773438 78.976562 24.738281 79.292969 24.714844 C 80.015625 24.664062 79.835938 24.574219 79.019531 24.574219 L 78.25 24.574219 Z M 78.28125 25.363281 "/>
</g>
</svg>
